<svg xmlns="http://www.w3.org/2000/svg" viewBox="0 0 1440 320">
              <path
                fill="#00808F"
                fill-opacity="1"
                d="M0,320L30,282.7C60,245,120,171,180,154.7C240,139,300,181,360,208C420,235,480,245,540,240C600,235,660,213,720,170.7C780,128,840,64,900,69.3C960,75,1020,149,1080,181.3C1140,213,1200,203,1260,192C1320,181,1380,171,1410,165.3L1440,160L1440,320L1410,320C1380,320,1320,320,1260,320C1200,320,1140,320,1080,320C1020,320,960,320,900,320C840,320,780,320,720,320C660,320,600,320,540,320C480,320,420,320,360,320C300,320,240,320,180,320C120,320,60,320,30,320L0,320Z"
              ></path>
            </svg>