<svg width="26" height="15" viewBox="0 0 26 15" fill="none" xmlns="http://www.w3.org/2000/svg">
<path d="M10.9346 0.923098C11.0874 1.01005 11.2044 1.10076 11.2856 1.26214C11.3572 1.55346 11.3282 1.86525 11.3153 2.16275C11.3672 2.15484 11.4191 2.14693 11.4726 2.13879C11.7504 2.10428 12.0274 2.10704 12.3069 2.10754C12.3639 2.1075 12.421 2.10745 12.4798 2.1074C12.5999 2.10737 12.72 2.10746 12.8402 2.10766C13.0236 2.10792 13.207 2.10766 13.3904 2.10735C13.5074 2.10738 13.6244 2.10745 13.7415 2.10754C13.7961 2.10744 13.8506 2.10734 13.9069 2.10724C14.1691 2.10803 14.4196 2.11634 14.6779 2.16275C14.6762 2.11337 14.6745 2.06399 14.6727 2.01312C14.6714 1.94726 14.67 1.88139 14.6687 1.81552C14.6669 1.7669 14.6669 1.7669 14.665 1.7173C14.6611 1.45114 14.7162 1.25762 14.8972 1.05921C15.1391 0.870835 15.2977 0.826197 15.6038 0.846952C15.8601 0.939217 15.9834 1.07102 16.1399 1.28555C16.1831 1.41514 16.1974 1.50391 16.204 1.63791C16.2061 1.67702 16.2081 1.71613 16.2102 1.75642C16.2121 1.79703 16.214 1.83764 16.216 1.87949C16.2181 1.92066 16.2202 1.96184 16.2224 2.00427C16.2276 2.10582 16.2325 2.20738 16.2373 2.30895C16.2964 2.31955 16.2964 2.31955 16.3567 2.33037C17.4291 2.52498 18.4794 2.75258 19.5025 3.13741C19.5079 3.09876 19.5134 3.0601 19.519 3.02028C19.5898 2.53997 19.5898 2.53997 19.7949 2.35768C20.0198 2.2094 20.2147 2.17361 20.4771 2.21148C20.7336 2.30201 20.8589 2.43409 21.0132 2.65008C21.0627 2.79763 21.0676 2.93297 21.0667 3.08792C21.0665 3.13346 21.0664 3.17901 21.0662 3.22593C21.0658 3.27311 21.0654 3.32029 21.065 3.36889C21.0648 3.41682 21.0645 3.46476 21.0643 3.51414C21.0637 3.63223 21.0629 3.75032 21.0619 3.86841C21.1246 3.88725 21.1246 3.88725 21.1885 3.90648C22.1369 4.24619 23.0128 4.99653 23.7727 5.64108C23.8016 5.66544 23.8304 5.68981 23.8602 5.71491C24.0525 5.88026 24.1976 6.01412 24.2783 6.25633C24.2814 6.38379 24.2818 6.50988 24.2798 6.63728C24.279 6.71763 24.2783 6.79799 24.2775 6.87835C24.2771 6.92096 24.2766 6.96357 24.2761 7.00747C24.2736 7.2809 24.2739 7.55433 24.2736 7.82777C24.2732 8.06787 24.2719 8.3079 24.2685 8.54798C24.2652 8.78043 24.2646 9.01276 24.2658 9.24523C24.2658 9.33355 24.2648 9.42189 24.2628 9.51019C24.24 10.0104 24.24 10.0104 24.4429 10.4472C24.5812 10.5641 24.5812 10.5641 24.7269 10.6525C25.1135 10.9003 25.3359 11.3258 25.4761 11.7512C25.5855 12.3335 25.5007 12.8786 25.2073 13.3896C25.1004 13.5256 24.9899 13.6435 24.8631 13.7612C24.8219 13.8014 24.7807 13.8417 24.7382 13.8831C24.306 14.2315 23.7656 14.3269 23.2247 14.2882C22.6885 14.2058 22.2787 13.9252 21.8946 13.5581C20.2082 11.974 17.8974 10.9492 15.6525 10.4961C15.6163 10.4887 15.58 10.4813 15.5426 10.4737C12.1764 9.80722 8.51941 10.5276 5.65708 12.4157C5.07506 12.8066 4.53167 13.2437 3.99732 13.6969C3.48749 14.1253 3.04905 14.324 2.36971 14.2912C1.95337 14.2492 1.61187 14.1085 1.27626 13.8587C1.21595 13.818 1.21595 13.818 1.15443 13.7765C0.759587 13.4112 0.544068 12.9164 0.522254 12.3832C0.515868 11.8734 0.6172 11.4436 0.935129 11.0322C0.95498 11.0059 0.974832 10.9797 0.995284 10.9526C1.1035 10.817 1.1973 10.7089 1.34833 10.6197C1.50156 10.5263 1.60357 10.4429 1.71486 10.3012C1.78505 10.0052 1.77502 9.71593 1.76797 9.41333C1.76778 9.32632 1.76783 9.23931 1.76811 9.1523C1.76829 8.92391 1.7657 8.69564 1.76239 8.46728C1.75757 8.1019 1.75705 7.73648 1.75641 7.37107C1.7558 7.24396 1.75405 7.11691 1.7521 6.98981C1.75146 6.91128 1.75085 6.83276 1.75026 6.75423C1.74942 6.71933 1.74858 6.68444 1.74772 6.64848C1.74685 6.33833 1.81457 6.07509 2.01906 5.83639C2.0614 5.80008 2.10374 5.76377 2.14737 5.72636C2.19492 5.68546 2.24248 5.64457 2.29147 5.60243C2.54882 5.39086 2.81167 5.18753 3.07939 4.98927C3.11821 4.96037 3.15703 4.93148 3.19703 4.9017C3.528 4.66286 3.87762 4.45275 4.22633 4.24114C4.27938 4.20844 4.27938 4.20844 4.33351 4.17507C4.44392 4.11207 4.44392 4.11207 4.56727 4.05831C4.68736 4.00395 4.78342 3.95553 4.88252 3.86841C4.93902 3.70804 4.93309 3.55862 4.92516 3.39021C4.91049 2.6878 4.91049 2.6878 5.14653 2.42778C5.35444 2.247 5.52789 2.19342 5.80235 2.19796C6.04659 2.22984 6.20221 2.35813 6.36583 2.53434C6.44268 2.70034 6.45036 2.77508 6.44674 2.95276C6.44605 2.9965 6.44536 3.04025 6.44465 3.08532C6.44377 3.11859 6.44289 3.15186 6.44198 3.18614C6.52462 3.15514 6.52462 3.15514 6.60893 3.12351C8.76927 2.33105 8.76927 2.33105 9.80457 2.35768C9.80287 2.29423 9.80117 2.23078 9.79943 2.16541C9.79805 2.08127 9.79672 1.99713 9.79543 1.91299C9.7942 1.87128 9.79298 1.82956 9.79172 1.78659C9.78836 1.49579 9.81966 1.28308 10.0239 1.05921C10.3168 0.831138 10.5858 0.770831 10.9346 0.923098ZM11.3153 3.67348C11.3153 4.52582 11.3153 5.37816 11.3153 6.25633C11.5987 6.24729 11.8822 6.23824 12.1742 6.22892C13.0124 6.20486 13.8398 6.2188 14.6779 6.25633C14.6779 5.40399 14.6779 4.55165 14.6779 3.67348C14.3462 3.63159 14.3462 3.63159 14.0181 3.61844C13.9688 3.61828 13.9195 3.61813 13.8687 3.61797C13.7907 3.61812 13.7907 3.61812 13.711 3.61827C13.629 3.6182 13.629 3.6182 13.5454 3.61813C13.4303 3.6181 13.3151 3.61818 13.2 3.61839C13.0247 3.61865 12.8495 3.61839 12.6742 3.61808C12.5619 3.61811 12.4496 3.61817 12.3374 3.61827C12.2854 3.61817 12.2335 3.61807 12.18 3.61797C12.1305 3.61812 12.0811 3.61828 12.0301 3.61844C11.9873 3.61848 11.9444 3.61851 11.9002 3.61855C11.7046 3.62683 11.5099 3.65185 11.3153 3.67348ZM16.1886 3.86841C16.1886 4.72075 16.1886 5.57309 16.1886 6.45127C16.3741 6.51309 16.5432 6.56643 16.7315 6.60851C17.2864 6.73542 17.8344 6.87458 18.3786 7.04216C18.4301 7.05796 18.4817 7.07377 18.5348 7.09006C18.8151 7.17789 19.0876 7.2756 19.3583 7.38993C19.4519 7.43166 19.4519 7.43166 19.5512 7.42593C19.5512 6.5575 19.5512 5.68908 19.5512 4.79434C18.8808 4.5269 18.8808 4.5269 18.1989 4.30091C18.1595 4.28931 18.1201 4.27771 18.0795 4.26576C17.7653 4.17529 17.4484 4.09719 17.1298 4.02375C17.0861 4.01365 17.0424 4.00356 16.9974 3.99317C16.9345 3.97919 16.9345 3.97919 16.8703 3.96492C16.8339 3.95683 16.7975 3.94874 16.76 3.9404C16.5709 3.90727 16.3794 3.88961 16.1886 3.86841ZM7.66335 4.35879C7.58782 4.38187 7.58782 4.38187 7.51076 4.40542C6.9368 4.55449 6.9368 4.55449 6.44198 4.84307C6.43742 4.92384 6.43625 5.0048 6.43644 5.0857C6.43645 5.13741 6.43645 5.18912 6.43646 5.24239C6.43671 5.29864 6.43696 5.35488 6.43722 5.41283C6.43729 5.47009 6.43736 5.52735 6.43743 5.58635C6.4377 5.77008 6.43831 5.95381 6.43893 6.13755C6.43918 6.26176 6.4394 6.38597 6.4396 6.51018C6.44014 6.81543 6.44095 7.12068 6.44198 7.42593C6.63113 7.38988 6.80612 7.33952 6.98813 7.27611C7.04735 7.25576 7.10658 7.23541 7.1676 7.21443C7.19878 7.2037 7.22997 7.19297 7.26211 7.18191C8.09796 6.89528 8.93762 6.67339 9.80457 6.5C9.80457 5.63157 9.80457 4.76315 9.80457 3.86841C9.10306 3.86841 8.32872 4.15443 7.66335 4.35879ZM21.0619 5.57407C21.0619 6.42641 21.0619 7.27875 21.0619 8.15693C21.4157 8.34991 21.7695 8.54289 22.1341 8.74172C22.4904 8.97321 22.4904 8.97321 22.6239 9.06687C22.7064 9.13616 22.7064 9.13616 22.7676 9.13159C22.7787 8.80562 22.7864 8.47971 22.7917 8.1536C22.7939 8.04278 22.7969 7.93199 22.8007 7.82122C22.806 7.6615 22.8085 7.50196 22.8104 7.34217C22.8138 7.26844 22.8138 7.26844 22.8173 7.19322C22.8174 6.98044 22.811 6.84613 22.6744 6.67713C22.5634 6.5772 22.4508 6.48882 22.329 6.40253C22.292 6.37454 22.2549 6.34655 22.2168 6.31772C22.1176 6.24305 22.0167 6.1718 21.9148 6.101C21.8809 6.0769 21.847 6.05281 21.8122 6.02799C21.5681 5.85677 21.3254 5.72042 21.0619 5.57407ZM4.51397 5.85124C4.48121 5.8715 4.44845 5.89176 4.4147 5.91263C4.34025 5.96021 4.26715 6.00993 4.19509 6.06106C4.11767 6.11474 4.03941 6.16746 3.95815 6.21513C3.50169 6.48343 3.50169 6.48343 3.23384 6.92152C3.17767 7.28109 3.20307 7.64004 3.22559 8.00159C3.22951 8.11139 3.23306 8.22119 3.23625 8.33101C3.24478 8.59817 3.25776 8.86482 3.27432 9.13159C3.61478 8.93318 3.95507 8.73449 4.29467 8.53461C4.32951 8.51413 4.36434 8.49365 4.40023 8.47255C4.43418 8.45257 4.46814 8.4326 4.50312 8.41201C4.53283 8.39453 4.56254 8.37705 4.59315 8.35905C4.62431 8.34059 4.65548 8.32214 4.68758 8.30313C4.72916 8.28299 4.77075 8.26285 4.81359 8.24211C4.94107 8.16889 4.94107 8.16889 4.96055 8.04314C4.95974 7.9761 4.95974 7.9761 4.95891 7.9077C4.95889 7.85698 4.95887 7.80626 4.95886 7.754C4.9576 7.69932 4.95634 7.64464 4.95504 7.58831C4.95453 7.50425 4.95453 7.50425 4.954 7.41849C4.95263 7.2392 4.94958 7.05999 4.94648 6.88073C4.94526 6.75931 4.94414 6.63789 4.94315 6.51647C4.94046 6.21855 4.93638 5.92068 4.93125 5.6228C4.79739 5.6228 4.62826 5.77831 4.51397 5.85124Z" fill="white"/>
</svg>
