<svg width="30" height="22" viewBox="0 0 30 22" fill="none" xmlns="http://www.w3.org/2000/svg">
<path d="M6.51715 4.91965C6.62865 4.91942 6.74015 4.9191 6.85165 4.91872C7.15287 4.91793 7.45408 4.91823 7.7553 4.91879C8.07136 4.91923 8.38742 4.91882 8.70348 4.91855C9.23406 4.91823 9.76464 4.91865 10.2952 4.91948C10.9077 4.92044 11.5201 4.92013 12.1326 4.91916C12.6596 4.91836 13.1866 4.91825 13.7135 4.91871C14.0278 4.91899 14.342 4.91902 14.6563 4.91844C14.9517 4.91793 15.2472 4.91829 15.5426 4.9193C15.6507 4.91953 15.7589 4.91947 15.867 4.91908C16.7984 4.91604 17.5688 5.03953 18.2747 5.69752C18.6285 6.07402 18.8259 6.57331 19.0176 7.04585C19.0418 7.10445 19.0659 7.16306 19.0908 7.22344C19.1413 7.34601 19.1915 7.46867 19.2415 7.59143C19.3183 7.78001 19.3959 7.96829 19.4736 8.15653C19.5226 8.27607 19.5717 8.39562 19.6207 8.51519C19.6555 8.59979 19.6555 8.59979 19.691 8.68611C19.7121 8.73807 19.7332 8.79004 19.755 8.84357C19.7737 8.88934 19.7923 8.93511 19.8116 8.98226C19.8514 9.09452 19.8514 9.09452 19.8514 9.21148C19.9171 9.19105 19.9827 9.17062 20.0504 9.14957C21.2949 8.76836 21.2949 8.76836 21.7228 8.97755C21.9685 9.15236 22.0989 9.27658 22.1907 9.56237C22.2155 9.77271 22.2123 9.98301 22.2126 10.1947C22.214 10.2508 22.2154 10.3069 22.2169 10.3648C22.2187 10.7947 22.1419 11.1115 21.85 11.4351C21.7961 11.4743 21.7961 11.4743 21.7411 11.5142C21.6883 11.5547 21.6883 11.5547 21.6344 11.596C21.4204 11.7015 21.1959 11.7403 20.9626 11.7846C20.9737 11.8154 20.9849 11.8462 20.9964 11.8779C21.0494 12.0256 21.101 12.1738 21.1526 12.3219C21.1702 12.3702 21.1877 12.4185 21.2058 12.4683C21.5828 13.563 21.6413 14.6545 21.6369 15.8027C21.6371 15.9493 21.6373 16.0959 21.6376 16.2425C21.6379 16.5471 21.6374 16.8516 21.6363 17.1562C21.6353 17.468 21.6352 17.7797 21.6363 18.0915C21.6377 18.471 21.6379 18.8504 21.6371 19.2299C21.637 19.3736 21.6372 19.5174 21.6377 19.6611C21.6383 19.8615 21.6374 20.0617 21.6361 20.2621C21.6366 20.3208 21.6371 20.3795 21.6375 20.4401C21.6325 20.8587 21.5538 21.1916 21.2529 21.4959C21.2138 21.5226 21.1746 21.5492 21.1343 21.5766C21.0951 21.6043 21.0558 21.6319 21.0153 21.6604C20.7706 21.8056 20.5302 21.7962 20.2546 21.7989C20.2079 21.7993 20.1613 21.7998 20.1132 21.8003C20.0143 21.8011 19.9155 21.8017 19.8166 21.8022C19.7161 21.8029 19.6155 21.8041 19.515 21.8058C19.3692 21.8083 19.2235 21.8092 19.0777 21.8098C19.0111 21.8114 19.0111 21.8114 18.9432 21.8129C18.5643 21.8114 18.2493 21.7016 17.9766 21.432C17.95 21.3929 17.9234 21.3537 17.8959 21.3134C17.8683 21.2741 17.8406 21.2349 17.8121 21.1944C17.4623 20.6049 17.6876 19.8769 17.6876 19.2118C13.3454 19.2118 9.00316 19.2118 4.52935 19.2118C4.52935 19.6942 4.52935 20.1767 4.52935 20.6738C4.33138 21.3337 4.33138 21.3337 4.12729 21.4925C4.06962 21.5396 4.06962 21.5396 4.01079 21.5875C3.72126 21.7742 3.45997 21.8035 3.12101 21.8046C3.0758 21.805 3.03059 21.8053 2.98402 21.8057C2.88861 21.8063 2.79321 21.8066 2.6978 21.8066C2.55301 21.8069 2.40832 21.809 2.26355 21.8112C2.17046 21.8115 2.07737 21.8118 1.98428 21.8119C1.94156 21.8127 1.89884 21.8136 1.85483 21.8144C1.48388 21.8112 1.18598 21.6909 0.90215 21.4509C0.876066 21.4188 0.849983 21.3867 0.823109 21.3536C0.796121 21.3218 0.769133 21.29 0.741327 21.2572C0.532508 20.9207 0.535559 20.584 0.536571 20.2013C0.536273 20.1428 0.535974 20.0843 0.535666 20.024C0.534853 19.8305 0.534909 19.6371 0.535044 19.4436C0.534816 19.3081 0.534563 19.1725 0.534284 19.037C0.533848 18.7524 0.533865 18.4678 0.534173 18.1832C0.534509 17.8219 0.533528 17.4605 0.532164 17.0992C0.531294 16.8187 0.531253 16.5383 0.531434 16.2579C0.531404 16.1249 0.531105 15.9919 0.530509 15.8589C0.526309 14.7879 0.582677 13.7278 0.903521 12.6984C0.917995 12.6488 0.932469 12.5992 0.947381 12.5481C1.03194 12.2645 1.13234 11.9957 1.25441 11.7262C1.22048 11.7247 1.18656 11.7232 1.15161 11.7216C0.753524 11.6927 0.51883 11.5911 0.245608 11.2876C-0.00449661 10.9303 0.00488252 10.6414 0.00437306 10.213C0.00294073 10.15 0.0015084 10.0871 3.26607e-05 10.0222C-0.00170183 9.55333 0.0648464 9.35381 0.391811 9.01776C0.671 8.84644 0.95996 8.83741 1.27337 8.904C1.35863 8.92525 1.4437 8.94735 1.52854 8.97024C1.61404 8.99205 1.69956 9.01383 1.78508 9.03558C1.82222 9.04544 1.85936 9.05531 1.89763 9.06548C2.03333 9.09915 2.16992 9.12591 2.30707 9.153C2.32678 9.10439 2.32678 9.10439 2.34689 9.0548C2.48485 8.71489 2.6235 8.37526 2.76252 8.03577C2.81419 7.90936 2.86569 7.78288 2.91701 7.65633C2.99118 7.47351 3.06597 7.29096 3.14088 7.10844C3.16337 7.05262 3.18587 6.99679 3.20904 6.93928C3.53751 6.14374 3.95444 5.4824 4.76328 5.1178C5.33796 4.89864 5.9124 4.91748 6.51715 4.91965ZM5.14172 6.46438C4.99063 6.66711 4.89732 6.88343 4.80348 7.11712C4.78036 7.17237 4.75724 7.22762 4.73342 7.28454C4.66245 7.45506 4.59258 7.626 4.52301 7.7971C4.44223 7.9951 4.36055 8.19273 4.27899 8.39041C4.00828 9.0468 3.73862 9.7036 3.4734 10.3622C3.42303 10.4862 3.37148 10.6096 3.31944 10.7328C3.2921 10.7994 3.26476 10.8659 3.2366 10.9344C3.21337 10.9896 3.19013 11.0448 3.1662 11.1017C3.11701 11.2924 3.13423 11.4198 3.18428 11.6092C3.29489 11.7412 3.38154 11.8248 3.53517 11.9016C3.61804 11.9072 3.70116 11.9093 3.78422 11.9095C3.8368 11.9097 3.88937 11.91 3.94354 11.9103C4.00166 11.9102 4.05979 11.9102 4.11968 11.9102C4.21188 11.9105 4.21188 11.9105 4.30594 11.9109C4.51327 11.9115 4.7206 11.9117 4.92793 11.912C5.07602 11.9123 5.22412 11.9127 5.37222 11.9131C5.81765 11.9143 6.26307 11.9149 6.7085 11.9154C6.91819 11.9156 7.12788 11.916 7.33756 11.9163C8.03449 11.9173 8.73142 11.9181 9.42834 11.9185C9.60925 11.9186 9.79016 11.9188 9.97107 11.9189C10.0385 11.9189 10.0385 11.9189 10.1073 11.919C10.8358 11.9194 11.5643 11.9209 12.2928 11.9228C13.0405 11.9248 13.7882 11.9258 14.5358 11.926C14.9557 11.9261 15.3756 11.9266 15.7955 11.9281C16.1905 11.9295 16.5854 11.9297 16.9804 11.9291C17.1254 11.9291 17.2705 11.9295 17.4156 11.9303C17.6135 11.9313 17.8112 11.9309 18.0091 11.9301C18.0955 11.9311 18.0955 11.9311 18.1837 11.9321C18.523 11.9289 18.7153 11.8931 18.9742 11.6677C19.0919 11.4323 19.0076 11.1334 18.9331 10.8904C18.8803 10.75 18.8236 10.6119 18.7649 10.4738C18.7437 10.4223 18.7225 10.3708 18.7006 10.3177C18.6316 10.1509 18.5617 9.98458 18.4917 9.81822C18.4438 9.70306 18.3959 9.58789 18.348 9.47269C18.2519 9.2416 18.1554 9.01069 18.0586 8.77987C17.9347 8.48371 17.8134 8.18656 17.6929 7.88903C17.6424 7.76533 17.5918 7.64167 17.5411 7.51804C17.5099 7.44155 17.479 7.36496 17.4482 7.28828C17.4059 7.1829 17.3625 7.07793 17.3191 6.97298C17.2955 6.91493 17.2719 6.85689 17.2476 6.79709C17.043 6.42061 16.6683 6.11793 16.2666 5.97331C15.9004 5.88806 15.5157 5.91176 15.1414 5.9129C15.0432 5.91257 14.945 5.91216 14.8468 5.91169C14.5809 5.91064 14.3151 5.91071 14.0493 5.91104C13.8269 5.91122 13.6046 5.91087 13.3822 5.91051C12.8575 5.90969 12.3327 5.90978 11.8079 5.91045C11.2675 5.91112 10.7271 5.9103 10.1866 5.90873C9.72176 5.90743 9.25688 5.90705 8.79199 5.90739C8.51474 5.90759 8.23749 5.90745 7.96023 5.90644C7.69939 5.90553 7.43856 5.90577 7.17772 5.90687C7.08234 5.90708 6.98695 5.9069 6.89158 5.90629C6.22133 5.9023 5.61943 5.9362 5.14172 6.46438ZM2.95036 14.5917C2.75277 14.8632 2.81388 15.2316 2.81494 15.5518C2.81512 15.6694 2.81375 15.7869 2.81227 15.9045C2.81223 15.979 2.81219 16.0535 2.81215 16.1303C2.81198 16.1983 2.8118 16.2664 2.81162 16.3365C2.83596 16.5434 2.8809 16.6506 3.00884 16.814C3.20034 16.9369 3.35644 16.946 3.58142 16.9471C3.64953 16.9476 3.71765 16.9482 3.78783 16.9487C3.89786 16.9487 3.89786 16.9487 4.0101 16.9486C4.12344 16.949 4.12344 16.949 4.23907 16.9493C4.39889 16.9498 4.5587 16.9498 4.71852 16.9494C4.9229 16.9491 5.12725 16.9501 5.33163 16.9515C5.52711 16.9525 5.72257 16.9523 5.91805 16.9522C5.99128 16.9528 6.06451 16.9533 6.13996 16.9539C6.20826 16.9535 6.27656 16.9531 6.34694 16.9528C6.40688 16.9528 6.46682 16.9528 6.52857 16.9529C6.72007 16.9274 6.83042 16.8689 6.98556 16.7555C7.07245 16.5818 7.05476 16.4038 7.05592 16.2132C7.05625 16.1711 7.05659 16.129 7.05693 16.0856C7.05748 15.9964 7.05786 15.9073 7.05809 15.8181C7.05866 15.6819 7.06047 15.5457 7.06232 15.4096C7.0627 15.3229 7.063 15.2363 7.06323 15.1496C7.06431 15.0886 7.06431 15.0886 7.06542 15.0264C7.0646 14.8478 7.05329 14.7254 6.96608 14.5678C6.78553 14.3955 6.5982 14.4085 6.36114 14.4069C6.29302 14.4063 6.2249 14.4058 6.15471 14.4052C6.08106 14.4049 6.00741 14.4047 5.93153 14.4044C5.85588 14.4041 5.78024 14.4038 5.70231 14.4034C5.54214 14.4028 5.38198 14.4025 5.22182 14.4023C5.01697 14.4019 4.81215 14.4005 4.60732 14.3989C4.41152 14.3975 4.21573 14.3974 4.01993 14.3971C3.90981 14.396 3.90981 14.396 3.79746 14.3949C3.72897 14.3951 3.66048 14.3953 3.58991 14.3955C3.52979 14.3952 3.46968 14.395 3.40774 14.3948C3.21599 14.4198 3.1064 14.4796 2.95036 14.5917ZM15.1729 14.5917C14.9879 14.9209 15.0367 15.3036 15.0377 15.67C15.0367 15.741 15.0358 15.8121 15.0348 15.8853C15.0348 15.9541 15.0347 16.0229 15.0347 16.0937C15.0345 16.1562 15.0344 16.2187 15.0342 16.283C15.0599 16.4956 15.1171 16.6334 15.2314 16.814C15.4209 16.9392 15.58 16.946 15.804 16.9471C15.8721 16.9476 15.9402 16.9482 16.0104 16.9487C16.1204 16.9487 16.1204 16.9487 16.2327 16.9486C16.346 16.949 16.346 16.949 16.4616 16.9493C16.6214 16.9498 16.7813 16.9498 16.9411 16.9494C17.1455 16.9491 17.3498 16.9501 17.5542 16.9515C17.7497 16.9525 17.9451 16.9523 18.1406 16.9522C18.2138 16.9528 18.2871 16.9533 18.3625 16.9539C18.4308 16.9535 18.4991 16.9531 18.5695 16.9528C18.6294 16.9528 18.6894 16.9528 18.7511 16.9529C18.9431 16.9274 19.0528 16.8694 19.2081 16.7555C19.3305 16.5384 19.3401 16.3458 19.3406 16.0995C19.3408 16.0305 19.3409 15.9615 19.3411 15.8904C19.3404 15.7831 19.3404 15.7831 19.3397 15.6736C19.3402 15.6021 19.3406 15.5306 19.3411 15.4569C19.3408 15.3534 19.3408 15.3534 19.3406 15.2478C19.3404 15.1537 19.3404 15.1537 19.3402 15.0577C19.3242 14.8735 19.2989 14.7528 19.2081 14.5917C18.991 14.4328 18.8373 14.3942 18.5704 14.3936C18.4683 14.3928 18.4683 14.3928 18.364 14.3919C18.2544 14.3925 18.2544 14.3925 18.1427 14.393C18.0672 14.3928 17.9917 14.3927 17.9139 14.3925C17.7545 14.3922 17.595 14.3926 17.4355 14.3934C17.2316 14.3944 17.0277 14.3939 16.8238 14.3928C16.6287 14.392 16.4335 14.3926 16.2384 14.393C16.1653 14.3926 16.0923 14.3923 16.017 14.3919C15.9148 14.3928 15.9148 14.3928 15.8106 14.3936C15.7508 14.3937 15.6911 14.3939 15.6295 14.394C15.438 14.42 15.328 14.4782 15.1729 14.5917Z" fill="white"/>
<path d="M22.8524 0.0211478C22.904 0.0207294 22.9555 0.0203109 23.0087 0.0198798C23.0651 0.0197226 23.1215 0.0195653 23.1796 0.0194033C23.2689 0.0188269 23.2689 0.0188269 23.3601 0.0182388C23.5576 0.0170842 23.755 0.0164025 23.9525 0.0158196C24.02 0.0155813 24.0875 0.0153429 24.1571 0.0150974C24.5146 0.013877 24.872 0.0130409 25.2295 0.0124929C25.5981 0.0118469 25.9667 0.0098364 26.3352 0.00751198C26.6192 0.00597977 26.9031 0.00549302 27.187 0.00528328C27.3228 0.00499908 27.4586 0.00432093 27.5944 0.00323422C27.7851 0.00180402 27.9756 0.00186494 28.1663 0.00227014C28.2219 0.00152099 28.2774 0.000771848 28.3347 0C28.7729 0.00337583 29.1746 0.0987689 29.5242 0.374473C29.5539 0.411488 29.5835 0.448502 29.614 0.486638C29.6447 0.523201 29.6754 0.559763 29.707 0.597433C29.9594 0.990393 29.9943 1.30636 29.9922 1.7651C29.9926 1.82658 29.993 1.88806 29.9934 1.95141C29.9945 2.15389 29.9942 2.35635 29.9939 2.55884C29.9942 2.70005 29.9945 2.84126 29.9948 2.98247C29.9954 3.27816 29.9952 3.57384 29.9946 3.86954C29.994 4.24795 29.9951 4.62634 29.9969 5.00475C29.9979 5.29629 29.9979 5.58783 29.9976 5.87937C29.9976 6.01887 29.9979 6.15837 29.9986 6.29787C29.9995 6.49312 29.9989 6.68832 29.9979 6.88357C29.9987 6.96949 29.9987 6.96949 29.9996 7.05715C29.9948 7.50227 29.8872 7.80647 29.5957 8.14401C29.1018 8.5674 28.6495 8.64603 28.0147 8.6379C27.9399 8.63766 27.9399 8.63766 27.8635 8.6374C27.7063 8.63675 27.549 8.63529 27.3917 8.63379C27.2842 8.6332 27.1768 8.63267 27.0693 8.63219C26.8076 8.63091 26.5459 8.6289 26.2842 8.62648C26.2844 8.69131 26.2846 8.75615 26.2847 8.82294C26.2886 10.3994 26.2915 11.9759 26.2933 13.5523C26.2942 14.3147 26.2955 15.077 26.2975 15.8394C26.2992 16.5038 26.3004 17.1681 26.3007 17.8325C26.301 18.1844 26.3015 18.5362 26.3028 18.8881C26.304 19.2192 26.3043 19.5502 26.3041 19.8813C26.3041 20.0029 26.3045 20.1245 26.3052 20.2461C26.306 20.412 26.3058 20.5778 26.3053 20.7437C26.3058 20.792 26.3064 20.8403 26.3069 20.89C26.3048 21.1594 26.2803 21.3303 26.1088 21.5508C25.956 21.6753 25.8306 21.6745 25.6409 21.6605C25.4707 21.6335 25.4073 21.6095 25.2645 21.5033C25.0768 21.2406 25.1065 20.9501 25.1076 20.6382C25.1075 20.5869 25.1075 20.5356 25.1074 20.4827C25.1073 20.3105 25.1077 20.1383 25.108 19.9661C25.108 19.8427 25.108 19.7194 25.1079 19.5961C25.1079 19.2609 25.1083 18.9257 25.1087 18.5906C25.109 18.2405 25.1091 17.8903 25.1092 17.5402C25.1093 16.877 25.1098 16.2138 25.1104 15.5507C25.1111 14.7957 25.1114 14.0408 25.1117 13.2858C25.1123 11.7327 25.1133 10.1796 25.1146 8.62648C25.0151 8.6274 25.0151 8.6274 24.9136 8.62834C24.6654 8.63047 24.4173 8.6318 24.1691 8.63291C24.0621 8.63349 23.955 8.63429 23.848 8.63531C23.6934 8.63674 23.5388 8.63739 23.3842 8.6379C23.337 8.63851 23.2898 8.63911 23.2412 8.63973C22.7119 8.63984 22.254 8.56859 21.8634 8.18376C21.4811 7.76579 21.4041 7.39577 21.4076 6.84339C21.4073 6.78305 21.407 6.72271 21.4067 6.66054C21.4059 6.46185 21.4064 6.26319 21.407 6.06451C21.4069 5.92592 21.4067 5.78733 21.4065 5.64874C21.4062 5.35855 21.4066 5.06838 21.4074 4.77819C21.4084 4.40686 21.4079 4.03555 21.4068 3.66422C21.4062 3.37809 21.4064 3.09197 21.4068 2.80585C21.4069 2.66896 21.4068 2.53208 21.4064 2.39519C21.4059 2.20358 21.4066 2.01201 21.4076 1.82041C21.4072 1.76422 21.4069 1.70804 21.4065 1.65015C21.4111 1.16425 21.5207 0.777425 21.8543 0.412166C22.1306 0.169204 22.4856 0.0231945 22.8524 0.0211478ZM23.7111 1.95963C23.6886 2.12044 23.6802 2.25764 23.6827 2.41824C23.6824 2.4642 23.6822 2.51015 23.682 2.5575C23.6815 2.7092 23.6828 2.86083 23.6841 3.01252C23.6842 3.11797 23.6843 3.22342 23.6843 3.32887C23.6845 3.54975 23.6854 3.77062 23.687 3.99149C23.689 4.27482 23.6894 4.55811 23.6893 4.84144C23.6894 5.05913 23.69 5.27681 23.6909 5.49449C23.6912 5.59897 23.6915 5.70345 23.6916 5.80794C23.6918 5.95382 23.6928 6.09968 23.6941 6.24556C23.694 6.28886 23.694 6.33215 23.6939 6.37676C23.6966 6.59335 23.7046 6.68694 23.828 6.87205C23.9797 6.88823 24.1153 6.89386 24.2666 6.89032C24.3271 6.89061 24.3271 6.89061 24.3889 6.89089C24.6323 6.89453 24.6323 6.89453 24.8222 6.75509C24.844 6.59052 24.844 6.59052 24.8464 6.39826C24.8487 6.3274 24.8509 6.25653 24.8533 6.18352C24.8551 6.10919 24.8569 6.03486 24.8588 5.95828C24.861 5.8835 24.8633 5.80871 24.8656 5.73167C24.8711 5.54648 24.8761 5.3613 24.8807 5.17609C25.024 5.10444 25.1226 5.10844 25.2827 5.10528C25.3404 5.10362 25.3981 5.10196 25.4575 5.10025C25.578 5.09725 25.6984 5.09465 25.8189 5.09248C26.4169 5.07392 26.9028 4.9801 27.3417 4.55359C27.6647 4.15696 27.7273 3.69611 27.7106 3.19665C27.6617 2.80176 27.5125 2.41185 27.2199 2.13508C26.6038 1.65833 25.7101 1.70386 24.9635 1.70403C24.8383 1.70377 24.7132 1.70162 24.5879 1.69944C24.5074 1.69909 24.4269 1.69886 24.3464 1.69875C24.2748 1.69827 24.2032 1.69779 24.1294 1.6973C23.9014 1.73242 23.8479 1.77603 23.7111 1.95963Z" fill="white"/>
<path d="M25.4766 2.64686C25.5319 2.64566 25.5873 2.64445 25.6444 2.64321C25.9593 2.64145 26.1908 2.65334 26.4598 2.83693C26.6135 3.06754 26.6529 3.26867 26.6208 3.54624C26.5832 3.72694 26.5508 3.85965 26.4127 3.98668C26.0001 4.23848 25.4054 4.22806 24.9393 4.18199C24.8223 4.06503 24.8223 4.06503 24.8081 3.92921C24.8083 3.87384 24.8086 3.81848 24.8088 3.76143C24.8089 3.70139 24.8091 3.64134 24.8092 3.57948C24.8099 3.51657 24.8106 3.45366 24.8113 3.38884C24.8114 3.32571 24.8114 3.26257 24.8115 3.19752C24.8148 2.60186 24.9067 2.6499 25.4766 2.64686Z" fill="white"/>
</svg>
